<svg xmlns="http://www.w3.org/2000/svg" viewBox="0 0 250 250"><g transform="matrix(0.625,0,0,0.625,0,0)"><g transform="matrix(4,0,0,4,0,0)"><circle cx="51.176" cy="50.611" r="40" stroke="#daedf7" stroke-miterlimit="10" fill="#e8f4fa"></circle><path stroke="#45413c" stroke-linecap="round" stroke-linejoin="round" fill="none" d="m50.05 84.635 17.304-6.545M11.661 38.722l14.653 37.887m23.051-64.382L30.597 22.588M11.661 38.722l18.936-16.134m34.48-4.261-15.712-6.1m24.231 15.346-8.519-9.246M85.442 31.64l-11.846-4.067m6.712 20.478L67.354 78.09m18.632-8.397L67.354 78.09M30.597 22.588l34.48-4.261M30.398 60.838l-4.084 15.771M11.661 38.722l18.737 22.116M50.05 84.635 30.398 60.838m.405-20.497 19.247-3.777m15.027-18.237L53.856 55.905m26.452-7.854-6.712-20.478"></path><path fill="#ffe500" stroke="#45413c" stroke-linecap="round" stroke-linejoin="round" d="m85.986 69.693-32.13-13.788"></path><path stroke="#45413c" stroke-linecap="round" stroke-linejoin="round" fill="none" d="M53.856 55.905 50.05 36.564l15.027-18.237"></path><path fill="#ffe500" stroke="#45413c" stroke-linecap="round" stroke-linejoin="round" d="m50.05 36.564 30.258 11.487m5.678 21.642-5.678-21.642"></path><path stroke="#45413c" stroke-linecap="round" stroke-linejoin="round" fill="none" d="M67.354 78.09 53.856 55.905m-.025-.162L50.05 84.635l-23.736-8.026"></path><path fill="#ffe500" stroke="#45413c" stroke-linecap="round" stroke-linejoin="round" d="m53.831 55.743-23.433 5.095M85.442 31.64l-5.134 16.411"></path><circle cx="50.05" cy="36.564" r="2.838" fill="#ff6242" stroke="#45413c" stroke-linecap="round" stroke-linejoin="round"></circle><path fill="#ffffff" stroke="#45413c" stroke-linecap="round" stroke-linejoin="round" d="m53.856 55.905 19.74-28.332"></path><path fill="#ffe500" stroke="#45413c" stroke-linecap="round" stroke-linejoin="round" d="m30.803 40.341 23.053 15.564M30.803 40.341l-.206-17.753m.206 17.753 18.562-28.114M30.803 40.341l-19.142-1.619m19.142 1.619-.405 20.497"></path><circle cx="73.596" cy="27.573" r="2.838" fill="#ffe500" stroke="#45413c" stroke-linecap="round" stroke-linejoin="round"></circle><circle cx="85.442" cy="31.64" r="2.838" fill="#ff6242" stroke="#45413c" stroke-linecap="round" stroke-linejoin="round"></circle><circle cx="85.986" cy="69.693" r="2.838" fill="#4acfff" stroke="#45413c" stroke-linecap="round" stroke-linejoin="round"></circle><circle cx="65.077" cy="18.327" r="2.838" fill="#4acfff" stroke="#45413c" stroke-linecap="round" stroke-linejoin="round"></circle><circle cx="30.586" cy="22.588" r="2.838" fill="#4acfff" stroke="#45413c" stroke-linecap="round" stroke-linejoin="round"></circle><circle cx="11.661" cy="38.84" r="2.838" fill="#ffe500" stroke="#45413c" stroke-linecap="round" stroke-linejoin="round"></circle><circle cx="49.365" cy="12.227" r="2.838" fill="#ffe500" stroke="#45413c" stroke-linecap="round" stroke-linejoin="round"></circle><circle cx="50.05" cy="84.509" r="2.838" fill="#ffe500" stroke="#45413c" stroke-linecap="round" stroke-linejoin="round"></circle><circle cx="26.314" cy="76.609" r="2.838" fill="#ff6242" stroke="#45413c" stroke-linecap="round" stroke-linejoin="round"></circle><circle cx="30.398" cy="60.838" r="2.838" fill="#4acfff" stroke="#45413c" stroke-linecap="round" stroke-linejoin="round"></circle><path d="M28.49 38.286a2.314 2.314 0 1 0 4.627 0v-1.157a2.314 2.314 0 1 0-4.627 0z" fill="#e8f4fa"></path><g stroke="#45413c" stroke-linecap="round" stroke-linejoin="round"><circle cx="30.803" cy="38.453" r="7.191" fill="#ffffff"></circle><path d="M28.49 38.286a2.314 2.314 0 1 0 4.627 0v-1.157a2.314 2.314 0 1 0-4.627 0z" fill="#ffcebf"></path><path d="M35.611 43.8a7.192 7.192 0 0 1-9.611 0 5.206 5.206 0 0 1 9.6 0" fill="#9ceb60"></path><path d="M28.509 36.83a2.313 2.313 0 0 1 4.216-.989 4.213 4.213 0 0 1-4.216.989z" fill="#a86c4d"></path></g><g stroke="#45413c" stroke-linecap="round" stroke-linejoin="round"><circle cx="53.857" cy="55.905" r="10.567" fill="#ffffff"></circle><path d="M50.457 55.66a3.4 3.4 0 0 0 6.8 0v-1.7a3.4 3.4 0 0 0-6.8 0z" fill="#ffcebf"></path><path d="M60.92 63.764a10.567 10.567 0 0 1-14.124 0 7.649 7.649 0 0 1 14.116-.012" fill="#ff6242"></path><path d="M50.485 53.521a3.4 3.4 0 0 1 6.2-1.453 6.193 6.193 0 0 1-6.2 1.453z" fill="#a86c4d"></path></g><g stroke="#45413c" stroke-linecap="round" stroke-linejoin="round"><circle cx="80.308" cy="47.533" r="7.191" fill="#ffffff"></circle><path d="M77.994 47.366a2.314 2.314 0 1 0 4.628 0v-1.157a2.314 2.314 0 1 0-4.628 0z" fill="#ffcebf"></path><path d="M85.115 52.881a7.191 7.191 0 0 1-9.612 0 5.206 5.206 0 0 1 9.607-.008" fill="#ffaa54"></path><path d="M78.013 45.91a2.314 2.314 0 0 1 4.217-.989 4.217 4.217 0 0 1-4.217.989z" fill="#a86c4d"></path></g><g stroke="#45413c" stroke-linecap="round" stroke-linejoin="round"><circle cx="67.354" cy="78.065" r="7.191" fill="#ffffff"></circle><path d="M65.04 77.9a2.314 2.314 0 0 0 4.628 0v-1.158a2.314 2.314 0 0 0-4.628 0z" fill="#ffcebf"></path><path d="M72.161 83.414a7.194 7.194 0 0 1-9.612 0 5.206 5.206 0 0 1 9.607-.009" fill="#00b8f0"></path><path d="M65.059 76.443a2.314 2.314 0 0 1 4.217-.989 4.217 4.217 0 0 1-4.217.989z" fill="#a86c4d"></path></g></g></g></svg>